<svg width="36" height="36" xmlns="http://www.w3.org/2000/svg"><path d="M17.999 2C9.164 2 2 9.163 2 18c0 7.07 4.584 13.066 10.942 15.182.8.147 1.092-.347 1.092-.771 0-.38-.013-1.386-.021-2.721-4.45.966-5.39-2.145-5.39-2.145-.728-1.849-1.777-2.34-1.777-2.34-1.452-.993.11-.973.11-.973 1.606.113 2.451 1.649 2.451 1.649 1.427 2.445 3.745 1.738 4.657 1.329.145-1.033.559-1.739 1.015-2.138-3.552-.404-7.288-1.777-7.288-7.908 0-1.747.624-3.176 1.647-4.294-.165-.404-.714-2.032.158-4.234 0 0 1.342-.43 4.399 1.64A15.325 15.325 0 0118 9.737a15.33 15.33 0 014.006.54c3.055-2.071 4.395-1.641 4.395-1.641.874 2.202.325 3.83.16 4.234 1.026 1.118 1.645 2.547 1.645 4.294 0 6.146-3.741 7.499-7.305 7.895.574.494 1.085 1.47 1.085 2.962 0 2.14-.02 3.865-.02 4.39 0 .428.29.926 1.1.77C29.42 31.06 34 25.068 34 18c0-8.838-7.164-16-16.001-16" fill="#182359" fill-rule="evenodd"/></svg>