<svg id="Layer_1" data-name="Layer 1" xmlns="http://www.w3.org/2000/svg" viewBox="0 0 270 162"><rect width="600" height="360" style="fill:none"/><path d="M35.39,90.649A15.2,15.2,0,0,1,20.021,75.086V75A15.307,15.307,0,0,1,35.647,59.35c5.651,0,9.033,1.9,11.816,4.669l-4.2,4.885c-2.311-2.118-4.666-3.415-7.663-3.415-5.052,0-8.69,4.236-8.69,9.424V75c0,5.187,3.553,9.511,8.69,9.511,3.425,0,5.523-1.384,7.877-3.546l4.2,4.28A15.253,15.253,0,0,1,35.39,90.649Z" transform="translate(9 9)" style="fill:#377dff"/><path d="M63.451,90.649A15.425,15.425,0,0,1,47.569,75.086V75A15.57,15.57,0,0,1,63.537,59.35,15.426,15.426,0,0,1,79.42,74.913V75A15.569,15.569,0,0,1,63.451,90.649ZM72.527,75c0-5.188-3.767-9.511-9.076-9.511s-8.99,4.236-8.99,9.424V75c0,5.187,3.767,9.511,9.076,9.511s8.99-4.237,8.99-9.425Z" transform="translate(9 9)" style="fill:#377dff"/><path d="M93.931,90.131H82.243V59.869H93.931c9.418,0,15.925,6.528,15.925,15.044V75C109.856,83.516,103.349,90.131,93.931,90.131ZM102.964,75c0-5.361-3.639-9.122-9.033-9.122H88.836V84.122h5.095c5.394,0,9.033-3.675,9.033-9.036Z" transform="translate(9 9)" style="fill:#377dff"/><path d="M164.734,90.131V59.869h6.593V90.131Z" transform="translate(9 9)" style="fill:#377dff"/><path d="M198.983,90.131l-2.74-6.788H183.571l-2.74,6.788h-6.722l12.844-30.478h6.079l12.843,30.478ZM189.907,67.65l-3.982,9.814h7.963Z" transform="translate(9 9)" style="fill:#377dff"/><path d="M229.377,90.131,214.864,70.893V90.131h-6.508V59.869h6.079L228.477,78.5V59.869h6.508V90.131Z" transform="translate(9 9)" style="fill:#377dff"/><path d="M157.116,80.965c-2.355,2.162-4.452,3.546-7.877,3.546-5.138,0-8.691-4.324-8.691-9.511v-.087c0-5.188,3.639-9.424,8.691-9.424,3,0,5.351,1.3,7.663,3.415l4.2-4.885c-2.782-2.767-6.164-4.669-11.816-4.669a15.186,15.186,0,0,0-14.9,10.775,13.084,13.084,0,0,1,1.014,2.208,6.347,6.347,0,0,1,.1,3.293,7.94,7.94,0,0,1-1.366,3.078c-.02.027-.044.052-.065.08a15.078,15.078,0,0,0,14.955,11.865,15.252,15.252,0,0,0,12.286-5.4Z" transform="translate(9 9)" style="fill:#377dff"/><path d="M116.762,64.953a4.717,4.717,0,0,0,4.586-4.879,4.767,4.767,0,0,0-4.927-4.578,4.719,4.719,0,0,0-4.585,4.881A4.768,4.768,0,0,0,116.762,64.953Z" transform="translate(9 9)" style="fill:#377dff"/><path d="M134.542,72.612a9.236,9.236,0,0,0-.5-1.194q-.456-.932-1.22-2.171a12.9,12.9,0,0,1-1.406-2.9,4.52,4.52,0,0,1,.081-3.167,4.923,4.923,0,0,1,2.375-2.408l-.338-1.056a7.179,7.179,0,0,1-1.019.077,4.366,4.366,0,0,1-2.28-.572,4.207,4.207,0,0,1-1.861-2.4,13.646,13.646,0,0,1-.556-3.316,16.808,16.808,0,0,0-.578-3.888,5.74,5.74,0,0,0-1.811-2.58,7.008,7.008,0,0,0-3.448-1.538,8.584,8.584,0,0,0-1.456-.126,8.009,8.009,0,0,0-2.577.423l-.593.215.241.753a9.04,9.04,0,0,1,.946-.053,4.623,4.623,0,0,1,2.387.555,3.8,3.8,0,0,1,1.7,2.192,15.836,15.836,0,0,1,.615,3.6,14.839,14.839,0,0,0,.527,3.3,5.718,5.718,0,0,0,1.528,2.319,6.917,6.917,0,0,0,2.91,1.633c.042.013.09.023.135.035-3.137,1.514-12.408,5.984-16.428,7.983a2.193,2.193,0,0,0-1.2,1.513c-.187.891.275,2.446,1.606,2.058,1.347-.392,8.559-3.85,8.559-3.85L115.67,71.72a153.259,153.259,0,0,0-2.878,18.41h3.086c.057-4.245,3.293-11.033,3.863-11.051s1.537,6.784,1.9,11.051h2.906L123.51,66.923c1.4-1.171,4.313-2.991,6.766-4.621a7.589,7.589,0,0,0-.9.9,7.2,7.2,0,0,0-1.51,3.09,5.825,5.825,0,0,0,.092,2.966,15.781,15.781,0,0,0,1.556,3.259,15.494,15.494,0,0,1,1.525,3.135,3.616,3.616,0,0,1-.2,2.7,5.484,5.484,0,0,1-2.4,2.333l.238.753A14.027,14.027,0,0,0,131.3,80.17a8.249,8.249,0,0,0,2.116-2.008,6.7,6.7,0,0,0,.419-.644,7.233,7.233,0,0,0,.791-2.085A5.438,5.438,0,0,0,134.542,72.612Z" transform="translate(9 9)" style="fill:#377dff"/><polygon points="180.834 59.65 176.594 59.889 174.386 63.552 172.851 59.554 147.442 67.487 172.01 55.854 171.665 51.581 175.234 53.904 179.153 52.252 178.067 56.398 180.834 59.65" style="fill:#377dff"/></svg>